<svg height="24" viewBox="0 0 24 24" width="24" xmlns="http://www.w3.org/2000/svg"><path d="m12 22c-5.5228475 0-10-4.4771525-10-10s4.4771525-10 10-10 10 4.4771525 10 10-4.4771525 10-10 10zm0-1c4.9705627 0 9-4.0294373 9-9 0-4.97056275-4.0294373-9-9-9-4.97056275 0-9 4.02943725-9 9 0 4.9705627 4.02943725 9 9 9zm3.1464466-11.85355339c.1952622-.19526215.5118446-.19526215.7071068 0 .1952621.19526215.1952621.51184463 0 .70710678l-5 5.00000001c-.1952622.1952621-.5118446.1952621-.7071068 0l-1.99999999-2c-.19526215-.1952622-.19526215-.5118446 0-.7071068.19526215-.1952621.51184463-.1952621.70710678 0l1.64644661 1.6464466z"/></svg>