<svg height="24" viewBox="0 0 24 24" width="24" xmlns="http://www.w3.org/2000/svg"><path d="m7.6483713 16h-2.1483713c-1.38071187 0-2.5-1.1192881-2.5-2.5v-5c0-1.38071187 1.11928813-2.5 2.5-2.5h7c1.3583784 0 2.4637218 1.08337121 2.4991251 2.4332083l2.2284508-1.85704234c.9758368-.81319739 2.4261357-.68135204 3.239333.29448482.3444538.41334451.5330911.93437016.5330911 1.47242412v5.3138502c0 1.2702549-1.0297451 2.3-2.3 2.3-.538054 0-1.0590796-.1886373-1.4724241-.5330911l-2.2284508-1.8570423c-.0354033 1.3498371-1.1407467 2.4332083-2.4991251 2.4332083h-2.1483713l2.473767 2.1203717c.2096629.1797111.2339437.4953611.0542326.705024s-.4953611.2339437-.705024.0542326l-3.1746043-2.7210894-3.17460431 2.7210894c-.20966292.1797111-.52531292.1554303-.70502399-.0542326-.17971108-.2096629-.15543031-.5253129.05423261-.705024zm6.3516287-3.4967184c-.0000167-.0023663-.0000167-.004733 0-.0070999v-2.99236327c-.0000167-.00236701-.0000167-.00473373 0-.00710008v-.99671835c0-.82842712-.6715729-1.5-1.5-1.5h-7c-.82842712 0-1.5.67157288-1.5 1.5v5c0 .8284271.67157288 1.5 1.5 1.5h7c.8284271 0 1.5-.6715729 1.5-1.5v-.9967171zm1-2.76909413v2.53162503l2.8677603 2.3898003c.2336295.1946912.5281222.3013123.8322397.3013123.7179702 0 1.3-.5820298 1.3-1.3v-5.3138502c0-.30411745-.1066211-.59861022-.3013123-.83223972-.4596333-.55155996-1.2793675-.62608125-1.8309274-.16644794z"/></svg>